<?xml version="1.0" encoding="UTF-8" standalone="no"?><svg xmlns="http://www.w3.org/2000/svg" xmlns:xlink="http://www.w3.org/1999/xlink" contentStyleType="text/css" height="150px" preserveAspectRatio="none" style="width:529px;height:150px;background:#FFFFFF;" version="1.1" viewBox="0 0 529 150" width="529px" zoomAndPan="magnify"><defs/><g><!--MD5=[b96f335442fe1c3fc81467722e37019f]
class artikel--><g id="elem_artikel"><rect codeLine="2" fill="#F1F1F1" height="83.2188" id="artikel" rx="2.5" ry="2.5" style="stroke:#181818;stroke-width:0.5;" width="78" x="7" y="33.5"/><ellipse cx="25.6" cy="49.5" fill="#ADD1B2" rx="11" ry="11" style="stroke:#181818;stroke-width:1.0;"/><path d="M24.1,50.5 L24.1,52.5 L28.1,52.5 L28.1,51.5 L28.1,51.0156 L28.725,50.5 L29.1,50.5 L29.475,50.5 L30.1,51.0156 L30.1,51.5 L30.1,54.5 L22.1,54.5 L21.6156,54.5 L21.1,53.875 L21.1,53.5 L21.1,53.125 L21.6156,52.5 L22.1,52.5 L22.1,52.5 L22.1,46.5 L22.1,46.5 L21.6156,46.5 L21.1,45.875 L21.1,45.5 L21.1,45.125 L21.6156,44.5 L22.1,44.5 L30.1,44.5 L30.1,47.5 L30.1,47.9844 L29.475,48.5 L29.1,48.5 L28.725,48.5 L28.1,47.9844 L28.1,47.5 L28.1,46.5 L24.1,46.5 L24.1,48.5 L25.1,48.5 L25.1,48.0156 L25.1,48.0156 L25.725,47.5 L26.1,47.5 L26.475,47.5 L27.1,48.0156 L27.1,48.5 L27.1,50.5 L27.1,50.9844 L26.475,51.5 L26.475,51.5 L26.1,51.5 L25.725,51.5 L25.1,50.9844 L25.1,50.9844 L25.1,50.5 L24.1,50.5 Z " fill="#000000"/><text fill="#000000" font-family="sans-serif" font-size="14" lengthAdjust="spacing" textLength="38" x="40.4" y="55.2285">artikel</text><line style="stroke:#181818;stroke-width:0.5;" x1="8" x2="84" y1="65.5" y2="65.5"/><ellipse cx="18" cy="76.5" fill="#000000" rx="3" ry="3" style="stroke:#000000;stroke-width:1.0;"/><text fill="#000000" font-family="sans-serif" font-size="14" lengthAdjust="spacing" textLength="52" x="27" y="84.0332">artikelNr</text><line style="stroke:#181818;stroke-width:1.0;" x1="8" x2="84" y1="91.1094" y2="91.1094"/><text fill="#000000" font-family="sans-serif" font-size="14" lengthAdjust="spacing" textLength="4" x="13" y="109.6426"> </text></g><!--MD5=[474a932d7077cb49adf868db46adba6c]
class angebots_Pos--><g id="elem_angebots_Pos"><rect codeLine="9" fill="#F1F1F1" height="136.0469" id="angebots_Pos" rx="2.5" ry="2.5" style="stroke:#181818;stroke-width:0.5;" width="123" x="120.5" y="7"/><ellipse cx="135.5" cy="23" fill="#ADD1B2" rx="11" ry="11" style="stroke:#181818;stroke-width:1.0;"/><path d="M134,24 L134,26 L138,26 L138,25 L138,24.5156 L138.625,24 L139,24 L139.375,24 L140,24.5156 L140,25 L140,28 L132,28 L131.5156,28 L131,27.375 L131,27 L131,26.625 L131.5156,26 L132,26 L132,26 L132,20 L132,20 L131.5156,20 L131,19.375 L131,19 L131,18.625 L131.5156,18 L132,18 L140,18 L140,21 L140,21.4844 L139.375,22 L139,22 L138.625,22 L138,21.4844 L138,21 L138,20 L134,20 L134,22 L135,22 L135,21.5156 L135,21.5156 L135.625,21 L136,21 L136.375,21 L137,21.5156 L137,22 L137,24 L137,24.4844 L136.375,25 L136.375,25 L136,25 L135.625,25 L135,24.4844 L135,24.4844 L135,24 L134,24 Z " fill="#000000"/><text fill="#000000" font-family="sans-serif" font-size="14" lengthAdjust="spacing" textLength="91" x="149.5" y="28.7285">angebots_Pos</text><line style="stroke:#181818;stroke-width:0.5;" x1="121.5" x2="242.5" y1="39" y2="39"/><ellipse cx="131.5" cy="50" fill="#000000" rx="3" ry="3" style="stroke:#000000;stroke-width:1.0;"/><text fill="#000000" font-family="sans-serif" font-size="14" lengthAdjust="spacing" textLength="37" x="140.5" y="57.5332">posNr</text><ellipse cx="131.5" cy="67.6094" fill="#000000" rx="3" ry="3" style="stroke:#000000;stroke-width:1.0;"/><text fill="#000000" font-family="sans-serif" font-size="14" lengthAdjust="spacing" textLength="30" x="140.5" y="75.1426">agNr</text><text fill="#000000" font-family="sans-serif" font-size="14" lengthAdjust="spacing" textLength="53" x="140.5" y="92.752">ArtikelNr</text><line style="stroke:#181818;stroke-width:1.0;" x1="121.5" x2="242.5" y1="99.8281" y2="99.8281"/><text fill="#000000" font-family="sans-serif" font-size="14" lengthAdjust="spacing" textLength="43" x="126.5" y="118.3613">menge</text><text fill="#000000" font-family="sans-serif" font-size="14" lengthAdjust="spacing" textLength="31" x="126.5" y="135.9707">preis</text></g><!--MD5=[7285b48517d59d6feb332b971daa4b53]
class angebots_Kopf--><g id="elem_angebots_Kopf"><rect codeLine="20" fill="#F1F1F1" height="100.8281" id="angebots_Kopf" rx="2.5" ry="2.5" style="stroke:#181818;stroke-width:0.5;" width="128" x="279" y="24.5"/><ellipse cx="294" cy="40.5" fill="#ADD1B2" rx="11" ry="11" style="stroke:#181818;stroke-width:1.0;"/><path d="M292.5,41.5 L292.5,43.5 L296.5,43.5 L296.5,42.5 L296.5,42.0156 L297.125,41.5 L297.5,41.5 L297.875,41.5 L298.5,42.0156 L298.5,42.5 L298.5,45.5 L290.5,45.5 L290.0156,45.5 L289.5,44.875 L289.5,44.5 L289.5,44.125 L290.0156,43.5 L290.5,43.5 L290.5,43.5 L290.5,37.5 L290.5,37.5 L290.0156,37.5 L289.5,36.875 L289.5,36.5 L289.5,36.125 L290.0156,35.5 L290.5,35.5 L298.5,35.5 L298.5,38.5 L298.5,38.9844 L297.875,39.5 L297.5,39.5 L297.125,39.5 L296.5,38.9844 L296.5,38.5 L296.5,37.5 L292.5,37.5 L292.5,39.5 L293.5,39.5 L293.5,39.0156 L293.5,39.0156 L294.125,38.5 L294.5,38.5 L294.875,38.5 L295.5,39.0156 L295.5,39.5 L295.5,41.5 L295.5,41.9844 L294.875,42.5 L294.875,42.5 L294.5,42.5 L294.125,42.5 L293.5,41.9844 L293.5,41.9844 L293.5,41.5 L292.5,41.5 Z " fill="#000000"/><text fill="#000000" font-family="sans-serif" font-size="14" lengthAdjust="spacing" textLength="96" x="308" y="46.2285">angebots_Kopf</text><line style="stroke:#181818;stroke-width:0.5;" x1="280" x2="406" y1="56.5" y2="56.5"/><ellipse cx="290" cy="67.5" fill="#000000" rx="3" ry="3" style="stroke:#000000;stroke-width:1.0;"/><text fill="#000000" font-family="sans-serif" font-size="14" lengthAdjust="spacing" textLength="30" x="299" y="75.0332">agNr</text><ellipse cx="290" cy="85.1094" fill="#000000" rx="3" ry="3" style="stroke:#000000;stroke-width:1.0;"/><text fill="#000000" font-family="sans-serif" font-size="14" lengthAdjust="spacing" textLength="24" x="299" y="92.6426">lifNr</text><line style="stroke:#181818;stroke-width:1.0;" x1="280" x2="406" y1="99.7188" y2="99.7188"/><text fill="#000000" font-family="sans-serif" font-size="14" lengthAdjust="spacing" textLength="41" x="285" y="118.252">Datum</text></g><!--MD5=[6e720e7ac1cb24c7148322ae46bb049c]
class kreditor--><g id="elem_kreditor"><rect codeLine="29" fill="#F1F1F1" height="65.6094" id="kreditor" rx="2.5" ry="2.5" style="stroke:#181818;stroke-width:0.5;" width="80" x="442" y="42"/><ellipse cx="457" cy="58" fill="#ADD1B2" rx="11" ry="11" style="stroke:#181818;stroke-width:1.0;"/><path d="M455.5,59 L455.5,61 L459.5,61 L459.5,60 L459.5,59.5156 L460.125,59 L460.5,59 L460.875,59 L461.5,59.5156 L461.5,60 L461.5,63 L453.5,63 L453.0156,63 L452.5,62.375 L452.5,62 L452.5,61.625 L453.0156,61 L453.5,61 L453.5,61 L453.5,55 L453.5,55 L453.0156,55 L452.5,54.375 L452.5,54 L452.5,53.625 L453.0156,53 L453.5,53 L461.5,53 L461.5,56 L461.5,56.4844 L460.875,57 L460.5,57 L460.125,57 L459.5,56.4844 L459.5,56 L459.5,55 L455.5,55 L455.5,57 L456.5,57 L456.5,56.5156 L456.5,56.5156 L457.125,56 L457.5,56 L457.875,56 L458.5,56.5156 L458.5,57 L458.5,59 L458.5,59.4844 L457.875,60 L457.875,60 L457.5,60 L457.125,60 L456.5,59.4844 L456.5,59.4844 L456.5,59 L455.5,59 Z " fill="#000000"/><text fill="#000000" font-family="sans-serif" font-size="14" lengthAdjust="spacing" textLength="48" x="471" y="63.7285">kreditor</text><line style="stroke:#181818;stroke-width:0.5;" x1="443" x2="521" y1="74" y2="74"/><ellipse cx="453" cy="85" fill="#000000" rx="3" ry="3" style="stroke:#000000;stroke-width:1.0;"/><text fill="#000000" font-family="sans-serif" font-size="14" lengthAdjust="spacing" textLength="32" x="462" y="92.5332">liefNr</text><line style="stroke:#181818;stroke-width:0.5;" x1="443" x2="521" y1="99.6094" y2="99.6094"/></g><!--MD5=[c8b177a07cb0c04fbbf9a06e06d0e54b]
link artikel to angebots_Pos--><g id="link_artikel_angebots_Pos"><path codeLine="34" d="M85.05,75 C96.79,75 108.53,75 120.27,75 " fill="none" id="artikel-angebots_Pos" style="stroke:#181818;stroke-width:1.0;"/><text fill="#000000" font-family="sans-serif" font-size="13" lengthAdjust="spacing" textLength="7" x="92.8952" y="71.0324">1</text><text fill="#000000" font-family="sans-serif" font-size="13" lengthAdjust="spacing" textLength="7" x="105.3201" y="71.5387">n</text></g><!--MD5=[06fda51009194c2e8639d5c8884da0d5]
link angebots_Pos to angebots_Kopf--><g id="link_angebots_Pos_angebots_Kopf"><path codeLine="35" d="M243.63,75 C255.41,75 267.18,75 278.95,75 " fill="none" id="angebots_Pos-angebots_Kopf" style="stroke:#181818;stroke-width:1.0;"/><text fill="#000000" font-family="sans-serif" font-size="13" lengthAdjust="spacing" textLength="7" x="251.5677" y="71.5387">n</text><text fill="#000000" font-family="sans-serif" font-size="13" lengthAdjust="spacing" textLength="7" x="264.1395" y="71.6004">1</text></g><!--MD5=[770bc007b88e43b8bf3aecb63976b9c3]
link angebots_Kopf to kreditor--><g id="link_angebots_Kopf_kreditor"><path codeLine="36" d="M407.07,75 C418.68,75 430.29,75 441.9,75 " fill="none" id="angebots_Kopf-kreditor" style="stroke:#181818;stroke-width:1.0;"/><text fill="#000000" font-family="sans-serif" font-size="13" lengthAdjust="spacing" textLength="7" x="414.8828" y="71.6004">n</text><text fill="#000000" font-family="sans-serif" font-size="13" lengthAdjust="spacing" textLength="7" x="427.1337" y="71.1362">1</text></g><!--MD5=[16f0c468884bf70abaf4a07b3d9d5102]
@startuml
' optional zur Wissensabfrage Chen Notationskommentare
entity artikel {
* artikelNr
' Unterstrich
- -

}

entity angebots_Pos {
* posNr
' Unterstrich
* agNr
' Unterstrich und gestrichelter Unterstrich
ArtikelNr
' gestrichelter Unterstrich
- -
menge
preis
}
entity angebots_Kopf {
* agNr
' Unterstrich
* lifNr
' gestrichelter Unterstrich
- -
Datum
}

entity kreditor {
* liefNr
' Unterstrich
}
' Beziehungen
artikel "1" - "n" angebots_Pos
angebots_Pos "n" - "1" angebots_Kopf
angebots_Kopf "n" - "1" kreditor



@enduml

@startuml
entity artikel {
* artikelNr
- -

}

entity angebots_Pos {
* posNr
* agNr
ArtikelNr
- -
menge
preis
}
entity angebots_Kopf {
* agNr
* lifNr
- -
Datum
}

entity kreditor {
* liefNr
}
artikel "1" - "n" angebots_Pos
angebots_Pos "n" - "1" angebots_Kopf
angebots_Kopf "n" - "1" kreditor



@enduml

PlantUML version 1.2022.4(Sat Apr 09 15:29:17 CEST 2022)
(GPL source distribution)
Java Runtime: OpenJDK Runtime Environment
JVM: OpenJDK 64-Bit Server VM
Default Encoding: Cp1252
Language: de
Country: DE
--></g></svg>