<?xml version="1.0" encoding="UTF-8" standalone="no"?><svg xmlns="http://www.w3.org/2000/svg" xmlns:xlink="http://www.w3.org/1999/xlink" contentStyleType="text/css" height="367px" preserveAspectRatio="none" style="width:726px;height:367px;background:#FFFFFF;" version="1.1" viewBox="0 0 726 367" width="726px" zoomAndPan="magnify"><defs/><g><rect fill="#F1F1F1" height="37.6094" rx="12.5" ry="12.5" style="stroke:#181818;stroke-width:1.5;" width="128" x="298" y="164.0234"/><text fill="#000000" font-family="sans-serif" font-size="14" lengthAdjust="spacing" textLength="108" x="308" y="188.5566">Formelsammlung</text><rect fill="#F1F1F1" height="37.6094" rx="12.5" ry="12.5" style="stroke:#181818;stroke-width:1.5;" width="62" x="476" y="77.6094"/><text fill="#000000" font-family="sans-serif" font-size="14" lengthAdjust="spacing" textLength="42" x="486" y="102.1426">Watt P</text><rect fill="#F1F1F1" height="37.6094" rx="12.5" ry="12.5" style="stroke:#181818;stroke-width:1.5;" width="89" x="588" y="20"/><text fill="#000000" font-family="sans-serif" font-size="14" lengthAdjust="spacing" textLength="69" x="598" y="44.5332">P = U^2 / R</text><path d="M538,96.4141 L548,96.4141 C563,96.4141 563,38.8047 578,38.8047 L588,38.8047 " fill="none" style="stroke:#181818;stroke-width:1.0;"/><rect fill="#F1F1F1" height="37.6094" rx="12.5" ry="12.5" style="stroke:#181818;stroke-width:1.5;" width="70" x="588" y="77.6094"/><text fill="#000000" font-family="sans-serif" font-size="14" lengthAdjust="spacing" textLength="50" x="598" y="102.1426">P = U * I</text><path d="M538,96.4141 L548,96.4141 C563,96.4141 563,96.4141 578,96.4141 L588,96.4141 " fill="none" style="stroke:#181818;stroke-width:1.0;"/><rect fill="#F1F1F1" height="37.6094" rx="12.5" ry="12.5" style="stroke:#181818;stroke-width:1.5;" width="84" x="588" y="135.2188"/><text fill="#000000" font-family="sans-serif" font-size="14" lengthAdjust="spacing" textLength="64" x="598" y="159.752">P = R * I^2</text><path d="M538,96.4141 L548,96.4141 C563,96.4141 563,154.0234 578,154.0234 L588,154.0234 " fill="none" style="stroke:#181818;stroke-width:1.0;"/><path d="M426,182.8281 L436,182.8281 C451,182.8281 451,96.4141 466,96.4141 L476,96.4141 " fill="none" style="stroke:#181818;stroke-width:1.0;"/><rect fill="#F1F1F1" height="37.6094" rx="12.5" ry="12.5" style="stroke:#181818;stroke-width:1.5;" width="57" x="476" y="250.4375"/><text fill="#000000" font-family="sans-serif" font-size="14" lengthAdjust="spacing" textLength="37" x="486" y="274.9707">Volt U</text><rect fill="#F1F1F1" height="37.6094" rx="12.5" ry="12.5" style="stroke:#181818;stroke-width:1.5;" width="71" x="583" y="192.8281"/><text fill="#000000" font-family="sans-serif" font-size="14" lengthAdjust="spacing" textLength="51" x="593" y="217.3613">U = R * I</text><path d="M533,269.2422 L543,269.2422 C558,269.2422 558,211.6328 573,211.6328 L583,211.6328 " fill="none" style="stroke:#181818;stroke-width:1.0;"/><rect fill="#F1F1F1" height="37.6094" rx="12.5" ry="12.5" style="stroke:#181818;stroke-width:1.5;" width="69" x="583" y="250.4375"/><text fill="#000000" font-family="sans-serif" font-size="14" lengthAdjust="spacing" textLength="49" x="593" y="274.9707">U = P / I</text><path d="M533,269.2422 L543,269.2422 C558,269.2422 558,269.2422 573,269.2422 L583,269.2422 " fill="none" style="stroke:#181818;stroke-width:1.0;"/><rect fill="#F1F1F1" height="37.6094" rx="12.5" ry="12.5" style="stroke:#181818;stroke-width:1.5;" width="131" x="583" y="308.0469"/><text fill="#000000" font-family="sans-serif" font-size="14" lengthAdjust="spacing" textLength="111" x="593" y="332.5801">U = $\sqrt{P * R}$</text><path d="M533,269.2422 L543,269.2422 C558,269.2422 558,326.8516 573,326.8516 L583,326.8516 " fill="none" style="stroke:#181818;stroke-width:1.0;"/><path d="M426,182.8281 L436,182.8281 C451,182.8281 451,269.2422 466,269.2422 L476,269.2422 " fill="none" style="stroke:#181818;stroke-width:1.0;"/><rect fill="#F1F1F1" height="37.6094" rx="12.5" ry="12.5" style="stroke:#181818;stroke-width:1.5;" width="64" x="184" y="77.6094"/><text fill="#000000" font-family="sans-serif" font-size="14" lengthAdjust="spacing" textLength="44" x="194" y="102.1426">R Ohm</text><rect fill="#F1F1F1" height="37.6094" rx="12.5" ry="12.5" style="stroke:#181818;stroke-width:1.5;" width="70" x="64" y="20"/><text fill="#000000" font-family="sans-serif" font-size="14" lengthAdjust="spacing" textLength="50" x="74" y="44.5332">R = U / I</text><path d="M184,96.4141 L174,96.4141 C159,96.4141 159,38.8047 144,38.8047 L134,38.8047 " fill="none" style="stroke:#181818;stroke-width:1.0;"/><rect fill="#F1F1F1" height="37.6094" rx="12.5" ry="12.5" style="stroke:#181818;stroke-width:1.5;" width="83" x="51" y="77.6094"/><text fill="#000000" font-family="sans-serif" font-size="14" lengthAdjust="spacing" textLength="63" x="61" y="102.1426">R = P / I^2</text><path d="M184,96.4141 L174,96.4141 C159,96.4141 159,96.4141 144,96.4141 L134,96.4141 " fill="none" style="stroke:#181818;stroke-width:1.0;"/><rect fill="#F1F1F1" height="37.6094" rx="12.5" ry="12.5" style="stroke:#181818;stroke-width:1.5;" width="89" x="45" y="135.2188"/><text fill="#000000" font-family="sans-serif" font-size="14" lengthAdjust="spacing" textLength="69" x="55" y="159.752">R = U^2 / P</text><path d="M184,96.4141 L174,96.4141 C159,96.4141 159,154.0234 144,154.0234 L134,154.0234 " fill="none" style="stroke:#181818;stroke-width:1.0;"/><path d="M298,182.8281 L288,182.8281 C273,182.8281 273,96.4141 258,96.4141 L248,96.4141 " fill="none" style="stroke:#181818;stroke-width:1.0;"/><rect fill="#F1F1F1" height="37.6094" rx="12.5" ry="12.5" style="stroke:#181818;stroke-width:1.5;" width="64" x="184" y="250.4375"/><text fill="#000000" font-family="sans-serif" font-size="14" lengthAdjust="spacing" textLength="44" x="194" y="274.9707">I Strom</text><rect fill="#F1F1F1" height="37.6094" rx="12.5" ry="12.5" style="stroke:#181818;stroke-width:1.5;" width="70" x="64" y="192.8281"/><text fill="#000000" font-family="sans-serif" font-size="14" lengthAdjust="spacing" textLength="50" x="74" y="217.3613">I = U / R</text><path d="M184,269.2422 L174,269.2422 C159,269.2422 159,211.6328 144,211.6328 L134,211.6328 " fill="none" style="stroke:#181818;stroke-width:1.0;"/><rect fill="#F1F1F1" height="37.6094" rx="12.5" ry="12.5" style="stroke:#181818;stroke-width:1.5;" width="69" x="65" y="250.4375"/><text fill="#000000" font-family="sans-serif" font-size="14" lengthAdjust="spacing" textLength="49" x="75" y="274.9707">I = P / U</text><path d="M184,269.2422 L174,269.2422 C159,269.2422 159,269.2422 144,269.2422 L134,269.2422 " fill="none" style="stroke:#181818;stroke-width:1.0;"/><rect fill="#F1F1F1" height="37.6094" rx="12.5" ry="12.5" style="stroke:#181818;stroke-width:1.5;" width="124" x="10" y="308.0469"/><text fill="#000000" font-family="sans-serif" font-size="14" lengthAdjust="spacing" textLength="104" x="20" y="332.5801">I = $/sqrt{P / R}$</text><path d="M184,269.2422 L174,269.2422 C159,269.2422 159,326.8516 144,326.8516 L134,326.8516 " fill="none" style="stroke:#181818;stroke-width:1.0;"/><path d="M298,182.8281 L288,182.8281 C273,182.8281 273,269.2422 258,269.2422 L248,269.2422 " fill="none" style="stroke:#181818;stroke-width:1.0;"/><!--MD5=[78f9b6e9a94efd1be15a1e37fb6e4235]
@startmindmap
+ Formelsammlung
++ Watt P
+++ P = U^2 / R
+++ P = U * I
+++ P = R * I^2

++ Volt U
+++ U = R * I
+++ U = P / I
+++ U = $\sqrt{P * R}$

- - R Ohm
- - - R = U / I
- - - R = P / I^2
- - - R = U^2 / P

- - I Strom
- - - I = U / R
- - - I = P / U
- - - I = $/sqrt{P / R}$

@endmindmap

PlantUML version 1.2022.4(Sat Apr 09 15:29:17 CEST 2022)
(GPL source distribution)
Java Runtime: OpenJDK Runtime Environment
JVM: OpenJDK 64-Bit Server VM
Default Encoding: Cp1252
Language: de
Country: DE
--></g></svg>