<?xml version="1.0" encoding="UTF-8" standalone="no"?><svg xmlns="http://www.w3.org/2000/svg" xmlns:xlink="http://www.w3.org/1999/xlink" contentStyleType="text/css" height="439px" preserveAspectRatio="none" style="width:1011px;height:439px;background:#FFFFFF;" version="1.1" viewBox="0 0 1011 439" width="1011px" zoomAndPan="magnify"><defs/><g><ellipse cx="505" cy="20" fill="#222222" rx="10" ry="10" style="stroke:#222222;stroke-width:1.0;"/><rect fill="#F1F1F1" height="35.0938" rx="12.5" ry="12.5" style="stroke:#181818;stroke-width:0.5;" width="112" x="449" y="50"/><text fill="#000000" font-family="sans-serif" font-size="12" lengthAdjust="spacing" textLength="89" x="462" y="72.457">weight Ganzzahl</text><rect fill="#F1F1F1" height="35.0938" rx="12.5" ry="12.5" style="stroke:#181818;stroke-width:0.5;" width="132" x="439" y="105.0938"/><text fill="#000000" font-family="sans-serif" font-size="12" lengthAdjust="spacing" textLength="109" x="452" y="127.5508">myReader: Scanner</text><rect fill="#F1F1F1" height="35.0938" rx="12.5" ry="12.5" style="stroke:#181818;stroke-width:0.5;" width="289" x="360.5" y="160.1875"/><text fill="#000000" font-family="sans-serif" font-size="12" lengthAdjust="spacing" textLength="266" x="373.5" y="182.6445">Ausgabe "Bitte Gewicht in Kilogramm eingeben!"</text><rect fill="#F1F1F1" height="35.0938" rx="12.5" ry="12.5" style="stroke:#181818;stroke-width:0.5;" width="133" x="438.5" y="215.2813"/><text fill="#000000" font-family="sans-serif" font-size="12" lengthAdjust="spacing" textLength="110" x="451.5" y="237.7383">myReader -&gt; weight</text><polygon fill="#F1F1F1" points="32,270.375,213,270.375,225,284.2109,213,298.0469,32,298.0469,20,284.2109,32,270.375" style="stroke:#181818;stroke-width:0.5;"/><text fill="#000000" font-family="sans-serif" font-size="11" lengthAdjust="spacing" textLength="67" x="32" y="281.7939">weight &lt; 60)€</text><text fill="#000000" font-family="sans-serif" font-size="11" lengthAdjust="spacing" textLength="175" x="38" y="295.6299">: Ausgabe: "zu leicht" + (60 - weight</text><polygon fill="#F1F1F1" points="274,272.2109,354,272.2109,366,284.2109,354,296.2109,274,296.2109,262,284.2109,274,272.2109" style="stroke:#181818;stroke-width:0.5;"/><text fill="#000000" font-family="sans-serif" font-size="11" lengthAdjust="spacing" textLength="80" x="274" y="288.7119">weight 60 bis 80</text><rect fill="#F1F1F1" height="35.0938" rx="12.5" ry="12.5" style="stroke:#181818;stroke-width:0.5;" width="158" x="235" y="316.2109"/><text fill="#000000" font-family="sans-serif" font-size="12" lengthAdjust="spacing" textLength="138" x="245" y="338.668">Ausgabe: "Leichtgewicht"</text><polygon fill="#F1F1F1" points="446.5,272.2109,532.5,272.2109,544.5,284.2109,532.5,296.2109,446.5,296.2109,434.5,284.2109,446.5,272.2109" style="stroke:#181818;stroke-width:0.5;"/><text fill="#000000" font-family="sans-serif" font-size="11" lengthAdjust="spacing" textLength="86" x="446.5" y="288.7119">weight 81 bis 100</text><rect fill="#F1F1F1" height="35.0938" rx="12.5" ry="12.5" style="stroke:#181818;stroke-width:0.5;" width="153" x="413" y="316.2109"/><text fill="#000000" font-family="sans-serif" font-size="12" lengthAdjust="spacing" textLength="133" x="423" y="338.668">Ausgabe: "Mittelgewicht"</text><polygon fill="#F1F1F1" points="621.5,272.2109,716.5,272.2109,728.5,284.2109,716.5,296.2109,621.5,296.2109,609.5,284.2109,621.5,272.2109" style="stroke:#181818;stroke-width:0.5;"/><text fill="#000000" font-family="sans-serif" font-size="11" lengthAdjust="spacing" textLength="92" x="621.5" y="288.7119">weight 101 bis 120</text><text fill="#000000" font-family="sans-serif" font-size="11" lengthAdjust="spacing" textLength="43" x="728.5" y="281.7939">über 120</text><rect fill="#F1F1F1" height="35.0938" rx="12.5" ry="12.5" style="stroke:#181818;stroke-width:0.5;" width="166" x="586" y="316.2109"/><text fill="#000000" font-family="sans-serif" font-size="12" lengthAdjust="spacing" textLength="146" x="596" y="338.668">Ausgabe: "Schwergewicht"</text><rect fill="#F1F1F1" height="35.0938" rx="12.5" ry="12.5" style="stroke:#181818;stroke-width:0.5;" width="228" x="772" y="318.293"/><text fill="#000000" font-family="sans-serif" font-size="12" lengthAdjust="spacing" textLength="208" x="782" y="340.75">Ausgabe: "Zu schwer" + (weight - 120)</text><rect fill="#F1F1F1" height="35.0938" rx="12.5" ry="12.5" style="stroke:#181818;stroke-width:0.5;" width="129" x="440.5" y="393.3867"/><text fill="#000000" font-family="sans-serif" font-size="12" lengthAdjust="spacing" textLength="109" x="450.5" y="415.8438">Auswahl Erfolgreich</text><line style="stroke:#181818;stroke-width:1.0;" x1="505" x2="505" y1="30" y2="50"/><polygon fill="#181818" points="501,40,505,50,509,40,505,44" style="stroke:#181818;stroke-width:1.0;"/><line style="stroke:#181818;stroke-width:1.0;" x1="505" x2="505" y1="85.0938" y2="105.0938"/><polygon fill="#181818" points="501,95.0938,505,105.0938,509,95.0938,505,99.0938" style="stroke:#181818;stroke-width:1.0;"/><line style="stroke:#181818;stroke-width:1.0;" x1="505" x2="505" y1="140.1875" y2="160.1875"/><polygon fill="#181818" points="501,150.1875,505,160.1875,509,150.1875,505,154.1875" style="stroke:#181818;stroke-width:1.0;"/><line style="stroke:#181818;stroke-width:1.0;" x1="505" x2="505" y1="195.2813" y2="215.2813"/><polygon fill="#181818" points="501,205.2813,505,215.2813,509,205.2813,505,209.2813" style="stroke:#181818;stroke-width:1.0;"/><line style="stroke:#181818;stroke-width:1.0;" x1="122.5" x2="122.5" y1="298.0469" y2="373.3867"/><polygon fill="#181818" points="118.5,363.3867,122.5,373.3867,126.5,363.3867,122.5,367.3867" style="stroke:#181818;stroke-width:1.0;"/><line style="stroke:#181818;stroke-width:1.0;" x1="314" x2="314" y1="296.2109" y2="316.2109"/><polygon fill="#181818" points="310,306.2109,314,316.2109,318,306.2109,314,310.2109" style="stroke:#181818;stroke-width:1.0;"/><line style="stroke:#181818;stroke-width:1.0;" x1="314" x2="314" y1="351.3047" y2="373.3867"/><polygon fill="#181818" points="310,363.3867,314,373.3867,318,363.3867,314,367.3867" style="stroke:#181818;stroke-width:1.0;"/><line style="stroke:#181818;stroke-width:1.0;" x1="489.5" x2="489.5" y1="296.2109" y2="316.2109"/><polygon fill="#181818" points="485.5,306.2109,489.5,316.2109,493.5,306.2109,489.5,310.2109" style="stroke:#181818;stroke-width:1.0;"/><line style="stroke:#181818;stroke-width:1.0;" x1="489.5" x2="489.5" y1="351.3047" y2="373.3867"/><polygon fill="#181818" points="485.5,363.3867,489.5,373.3867,493.5,363.3867,489.5,367.3867" style="stroke:#181818;stroke-width:1.0;"/><line style="stroke:#181818;stroke-width:1.0;" x1="669" x2="669" y1="296.2109" y2="316.2109"/><polygon fill="#181818" points="665,306.2109,669,316.2109,673,306.2109,669,310.2109" style="stroke:#181818;stroke-width:1.0;"/><line style="stroke:#181818;stroke-width:1.0;" x1="669" x2="669" y1="351.3047" y2="373.3867"/><polygon fill="#181818" points="665,363.3867,669,373.3867,673,363.3867,669,367.3867" style="stroke:#181818;stroke-width:1.0;"/><line style="stroke:#181818;stroke-width:1.0;" x1="225" x2="262" y1="284.2109" y2="284.2109"/><polygon fill="#181818" points="252,280.2109,262,284.2109,252,288.2109,256,284.2109" style="stroke:#181818;stroke-width:1.0;"/><line style="stroke:#181818;stroke-width:1.0;" x1="366" x2="434.5" y1="284.2109" y2="284.2109"/><polygon fill="#181818" points="424.5,280.2109,434.5,284.2109,424.5,288.2109,428.5,284.2109" style="stroke:#181818;stroke-width:1.0;"/><line style="stroke:#181818;stroke-width:1.0;" x1="544.5" x2="609.5" y1="284.2109" y2="284.2109"/><polygon fill="#181818" points="599.5,280.2109,609.5,284.2109,599.5,288.2109,603.5,284.2109" style="stroke:#181818;stroke-width:1.0;"/><line style="stroke:#181818;stroke-width:1.0;" x1="505" x2="505" y1="250.375" y2="255.375"/><line style="stroke:#181818;stroke-width:1.0;" x1="505" x2="122.5" y1="255.375" y2="255.375"/><line style="stroke:#181818;stroke-width:1.0;" x1="122.5" x2="122.5" y1="255.375" y2="270.375"/><polygon fill="#181818" points="118.5,260.375,122.5,270.375,126.5,260.375,122.5,264.375" style="stroke:#181818;stroke-width:1.0;"/><line style="stroke:#181818;stroke-width:1.0;" x1="728.5" x2="886" y1="284.2109" y2="284.2109"/><line style="stroke:#181818;stroke-width:1.0;" x1="886" x2="886" y1="284.2109" y2="318.293"/><polygon fill="#181818" points="882,308.293,886,318.293,890,308.293,886,312.293" style="stroke:#181818;stroke-width:1.0;"/><line style="stroke:#181818;stroke-width:1.0;" x1="886" x2="886" y1="353.3867" y2="373.3867"/><polygon fill="#181818" points="882,363.3867,886,373.3867,890,363.3867,886,367.3867" style="stroke:#181818;stroke-width:1.0;"/><line style="stroke:#181818;stroke-width:1.0;" x1="122.5" x2="886" y1="373.3867" y2="373.3867"/><line style="stroke:#181818;stroke-width:1.0;" x1="505" x2="505" y1="373.3867" y2="393.3867"/><polygon fill="#181818" points="501,383.3867,505,393.3867,509,383.3867,505,387.3867" style="stroke:#181818;stroke-width:1.0;"/><!--MD5=[689ffb37cdf3a3155bbb27c3292c9d60]
@startuml
start
: weight Ganzzahl;
: myReader: Scanner;
: Ausgabe "Bitte Gewicht in Kilogramm eingeben!";
: myReader -> weight;
if (weight < 60)€
  : Ausgabe: "zu leicht" + (60 - weight);
elseif (weight 60 bis 80) then
  :Ausgabe: "Leichtgewicht";
elseif (weight 81 bis 100) then
  :Ausgabe: "Mittelgewicht";
elseif (weight 101 bis 120 ) then
:Ausgabe: "Schwergewicht";
else (über 120)
:Ausgabe: "Zu schwer" + (weight - 120);
endif
:Auswahl Erfolgreich;
@enduml

PlantUML version 1.2022.4(Sat Apr 09 15:29:17 CEST 2022)
(GPL source distribution)
Java Runtime: OpenJDK Runtime Environment
JVM: OpenJDK 64-Bit Server VM
Default Encoding: Cp1252
Language: de
Country: DE
--></g></svg>