<?xml version="1.0" encoding="UTF-8" standalone="no"?><svg xmlns="http://www.w3.org/2000/svg" xmlns:xlink="http://www.w3.org/1999/xlink" contentStyleType="text/css" height="134.4px" preserveAspectRatio="none" style="width:591px;height:134px;background:#FFFFFF;" version="1.1" viewBox="0 0 591 134" width="591.2px" zoomAndPan="magnify"><defs/><g><!--MD5=[6997c5ccadded95ede5576a6887887c8]
cluster switch--><g id="cluster_switch"><polygon fill="none" points="6.4,6.4,10.4,2.4,325.6,2.4,325.6,123.6,321.6,127.6,6.4,127.6,6.4,6.4" style="stroke:#181818;stroke-width:0.4000000000000001;"/><line style="stroke:#181818;stroke-width:0.4000000000000001;" x1="321.6" x2="325.6" y1="6.4" y2="2.4"/><line style="stroke:#181818;stroke-width:0.4000000000000001;" x1="6.4" x2="321.6" y1="6.4" y2="6.4"/><line style="stroke:#181818;stroke-width:0.4000000000000001;" x1="321.6" x2="321.6" y1="6.4" y2="127.6"/><text fill="#000000" font-family="sans-serif" font-size="5.6" font-weight="bold" lengthAdjust="spacing" textLength="18" x="155.4" y="12.6695">switch</text></g><!--MD5=[20ba7a0c1329a8796b82f86a96b472b0]
entity Fa1--><g id="elem_Fa1"><rect fill="#F1F1F1" height="18.2563" rx="1" ry="1" style="stroke:#181818;stroke-width:0.20000000000000004;" width="26" x="53" y="18"/><rect fill="#F1F1F1" height="4" style="stroke:#181818;stroke-width:0.20000000000000004;" width="6" x="71" y="20"/><rect fill="#F1F1F1" height="0.8" style="stroke:#181818;stroke-width:0.20000000000000004;" width="1.6" x="70.2" y="20.8"/><rect fill="#F1F1F1" height="0.8" style="stroke:#181818;stroke-width:0.20000000000000004;" width="1.6" x="70.2" y="22.4"/><text fill="#000000" font-family="sans-serif" font-size="5.6" lengthAdjust="spacing" textLength="10" x="59" y="31.0695">Fa1</text></g><!--MD5=[74ae2ae0d670d0be9e471c221afeec76]
entity Fa2--><g id="elem_Fa2"><rect fill="#F1F1F1" height="18.2563" rx="1" ry="1" style="stroke:#181818;stroke-width:0.20000000000000004;" width="26" x="13" y="18"/><rect fill="#F1F1F1" height="4" style="stroke:#181818;stroke-width:0.20000000000000004;" width="6" x="31" y="20"/><rect fill="#F1F1F1" height="0.8" style="stroke:#181818;stroke-width:0.20000000000000004;" width="1.6" x="30.2" y="20.8"/><rect fill="#F1F1F1" height="0.8" style="stroke:#181818;stroke-width:0.20000000000000004;" width="1.6" x="30.2" y="22.4"/><text fill="#000000" font-family="sans-serif" font-size="5.6" lengthAdjust="spacing" textLength="10" x="19" y="31.0695">Fa2</text></g><!--MD5=[f40555bd598b2a47b54c90d1d12a4417]
entity Fa3--><g id="elem_Fa3"><rect fill="#F1F1F1" height="18.2563" rx="1" ry="1" style="stroke:#181818;stroke-width:0.20000000000000004;" width="26" x="93" y="18"/><rect fill="#F1F1F1" height="4" style="stroke:#181818;stroke-width:0.20000000000000004;" width="6" x="111" y="20"/><rect fill="#F1F1F1" height="0.8" style="stroke:#181818;stroke-width:0.20000000000000004;" width="1.6" x="110.2" y="20.8"/><rect fill="#F1F1F1" height="0.8" style="stroke:#181818;stroke-width:0.20000000000000004;" width="1.6" x="110.2" y="22.4"/><text fill="#000000" font-family="sans-serif" font-size="5.6" lengthAdjust="spacing" textLength="10" x="99" y="31.0695">Fa3</text></g><!--MD5=[703bc2f7bf82839ffcdc464cb229ece9]
entity Fa4--><g id="elem_Fa4"><rect fill="#F1F1F1" height="18.2563" rx="1" ry="1" style="stroke:#181818;stroke-width:0.20000000000000004;" width="26" x="253" y="18"/><rect fill="#F1F1F1" height="4" style="stroke:#181818;stroke-width:0.20000000000000004;" width="6" x="271" y="20"/><rect fill="#F1F1F1" height="0.8" style="stroke:#181818;stroke-width:0.20000000000000004;" width="1.6" x="270.2" y="20.8"/><rect fill="#F1F1F1" height="0.8" style="stroke:#181818;stroke-width:0.20000000000000004;" width="1.6" x="270.2" y="22.4"/><text fill="#000000" font-family="sans-serif" font-size="5.6" lengthAdjust="spacing" textLength="10" x="259" y="31.0695">Fa4</text></g><!--MD5=[8be7f63aced2e0b55bc0db0d46b26e39]
entity Fa5--><g id="elem_Fa5"><rect fill="#F1F1F1" height="18.2563" rx="1" ry="1" style="stroke:#181818;stroke-width:0.20000000000000004;" width="26" x="173" y="18"/><rect fill="#F1F1F1" height="4" style="stroke:#181818;stroke-width:0.20000000000000004;" width="6" x="191" y="20"/><rect fill="#F1F1F1" height="0.8" style="stroke:#181818;stroke-width:0.20000000000000004;" width="1.6" x="190.2" y="20.8"/><rect fill="#F1F1F1" height="0.8" style="stroke:#181818;stroke-width:0.20000000000000004;" width="1.6" x="190.2" y="22.4"/><text fill="#000000" font-family="sans-serif" font-size="5.6" lengthAdjust="spacing" textLength="10" x="179" y="31.0695">Fa5</text></g><!--MD5=[cede7a74723eb104572c76e05f954001]
entity Fa6--><g id="elem_Fa6"><rect fill="#F1F1F1" height="18.2563" rx="1" ry="1" style="stroke:#181818;stroke-width:0.20000000000000004;" width="26" x="293" y="18"/><rect fill="#F1F1F1" height="4" style="stroke:#181818;stroke-width:0.20000000000000004;" width="6" x="311" y="20"/><rect fill="#F1F1F1" height="0.8" style="stroke:#181818;stroke-width:0.20000000000000004;" width="1.6" x="310.2" y="20.8"/><rect fill="#F1F1F1" height="0.8" style="stroke:#181818;stroke-width:0.20000000000000004;" width="1.6" x="310.2" y="22.4"/><text fill="#000000" font-family="sans-serif" font-size="5.6" lengthAdjust="spacing" textLength="10" x="299" y="31.0695">Fa6</text></g><!--MD5=[d32eddb2c36d38fa28afa9bb14a7f038]
entity Fa7--><g id="elem_Fa7"><rect fill="#F1F1F1" height="18.2563" rx="1" ry="1" style="stroke:#181818;stroke-width:0.20000000000000004;" width="26" x="133" y="18"/><rect fill="#F1F1F1" height="4" style="stroke:#181818;stroke-width:0.20000000000000004;" width="6" x="151" y="20"/><rect fill="#F1F1F1" height="0.8" style="stroke:#181818;stroke-width:0.20000000000000004;" width="1.6" x="150.2" y="20.8"/><rect fill="#F1F1F1" height="0.8" style="stroke:#181818;stroke-width:0.20000000000000004;" width="1.6" x="150.2" y="22.4"/><text fill="#000000" font-family="sans-serif" font-size="5.6" lengthAdjust="spacing" textLength="10" x="139" y="31.0695">Fa7</text></g><!--MD5=[f4b5e2483cf4302bc441173544c89918]
entity Fa8--><g id="elem_Fa8"><rect fill="#F1F1F1" height="18.2563" rx="1" ry="1" style="stroke:#181818;stroke-width:0.20000000000000004;" width="26" x="13.8" y="60.4"/><rect fill="#F1F1F1" height="4" style="stroke:#181818;stroke-width:0.20000000000000004;" width="6" x="31.8" y="62.4"/><rect fill="#F1F1F1" height="0.8" style="stroke:#181818;stroke-width:0.20000000000000004;" width="1.6" x="31" y="63.2"/><rect fill="#F1F1F1" height="0.8" style="stroke:#181818;stroke-width:0.20000000000000004;" width="1.6" x="31" y="64.8"/><text fill="#000000" font-family="sans-serif" font-size="5.6" lengthAdjust="spacing" textLength="10" x="19.8" y="73.4695">Fa8</text></g><!--MD5=[0172ce20b505cbc55da7166b2a9e034c]
entity Fa9--><g id="elem_Fa9"><rect fill="#F1F1F1" height="18.2563" rx="1" ry="1" style="stroke:#181818;stroke-width:0.20000000000000004;" width="26" x="213" y="18"/><rect fill="#F1F1F1" height="4" style="stroke:#181818;stroke-width:0.20000000000000004;" width="6" x="231" y="20"/><rect fill="#F1F1F1" height="0.8" style="stroke:#181818;stroke-width:0.20000000000000004;" width="1.6" x="230.2" y="20.8"/><rect fill="#F1F1F1" height="0.8" style="stroke:#181818;stroke-width:0.20000000000000004;" width="1.6" x="230.2" y="22.4"/><text fill="#000000" font-family="sans-serif" font-size="5.6" lengthAdjust="spacing" textLength="10" x="219" y="31.0695">Fa9</text></g><!--MD5=[f4fb85567f53141c7cc20e76a528a0f6]
entity Fa10--><g id="elem_Fa10"><rect fill="#F1F1F1" height="18.2563" rx="1" ry="1" style="stroke:#181818;stroke-width:0.20000000000000004;" width="29.2" x="53.8" y="60.4"/><rect fill="#F1F1F1" height="4" style="stroke:#181818;stroke-width:0.20000000000000004;" width="6" x="75" y="62.4"/><rect fill="#F1F1F1" height="0.8" style="stroke:#181818;stroke-width:0.20000000000000004;" width="1.6" x="74.2" y="63.2"/><rect fill="#F1F1F1" height="0.8" style="stroke:#181818;stroke-width:0.20000000000000004;" width="1.6" x="74.2" y="64.8"/><text fill="#000000" font-family="sans-serif" font-size="5.6" lengthAdjust="spacing" textLength="13.2" x="59.8" y="73.4695">Fa10</text></g><!--MD5=[8739098f13f8c2e623d4f1fdf2a1f12f]
entity Fa11--><g id="elem_Fa11"><rect fill="#F1F1F1" height="18.2563" rx="1" ry="1" style="stroke:#181818;stroke-width:0.20000000000000004;" width="29.2" x="97" y="60.4"/><rect fill="#F1F1F1" height="4" style="stroke:#181818;stroke-width:0.20000000000000004;" width="6" x="118.2" y="62.4"/><rect fill="#F1F1F1" height="0.8" style="stroke:#181818;stroke-width:0.20000000000000004;" width="1.6" x="117.4" y="63.2"/><rect fill="#F1F1F1" height="0.8" style="stroke:#181818;stroke-width:0.20000000000000004;" width="1.6" x="117.4" y="64.8"/><text fill="#000000" font-family="sans-serif" font-size="5.6" lengthAdjust="spacing" textLength="13.2" x="103" y="73.4695">Fa11</text></g><!--MD5=[b56c07c2d4cce002362654d5dea5ef63]
entity Fa12--><g id="elem_Fa12"><rect fill="#F1F1F1" height="18.2563" rx="1" ry="1" style="stroke:#181818;stroke-width:0.20000000000000004;" width="29.2" x="13" y="102.8"/><rect fill="#F1F1F1" height="4" style="stroke:#181818;stroke-width:0.20000000000000004;" width="6" x="34.2" y="104.8"/><rect fill="#F1F1F1" height="0.8" style="stroke:#181818;stroke-width:0.20000000000000004;" width="1.6" x="33.4" y="105.6"/><rect fill="#F1F1F1" height="0.8" style="stroke:#181818;stroke-width:0.20000000000000004;" width="1.6" x="33.4" y="107.2"/><text fill="#000000" font-family="sans-serif" font-size="5.6" lengthAdjust="spacing" textLength="13.2" x="19" y="115.8695">Fa12</text></g><!--MD5=[ffec6a9efb9cc25dae0a2c0a0b7068f5]
entity Frame--><g id="elem_Frame"><rect fill="#F1F1F1" height="18.2563" rx="1" ry="1" style="stroke:#181818;stroke-width:0.20000000000000004;" width="32.4" x="333" y="18"/><path d="M343.8,18 L343.8,20 L341,22.8 L333,22.8 " fill="none" style="stroke:#181818;stroke-width:0.20000000000000004;"/><text fill="#000000" font-family="sans-serif" font-size="5.6" lengthAdjust="spacing" textLength="16.4" x="339" y="31.0695">Frame</text></g><!--MD5=[4219e0dda3ef77e1d58789183c17f4ee]
entity Hub--><g id="elem_Hub"><rect fill="#F1F1F1" height="18.2563" rx="1" ry="1" style="stroke:#181818;stroke-width:0.20000000000000004;" width="26" x="470.6" y="60.4"/><rect fill="#F1F1F1" height="4" style="stroke:#181818;stroke-width:0.20000000000000004;" width="6" x="488.6" y="62.4"/><rect fill="#F1F1F1" height="0.8" style="stroke:#181818;stroke-width:0.20000000000000004;" width="1.6" x="487.8" y="63.2"/><rect fill="#F1F1F1" height="0.8" style="stroke:#181818;stroke-width:0.20000000000000004;" width="1.6" x="487.8" y="64.8"/><text fill="#000000" font-family="sans-serif" font-size="5.6" lengthAdjust="spacing" textLength="10" x="476.6" y="73.4695">Hub</text></g><!--MD5=[b3949f337efe509df0256cc02fc3665e]
entity PC 0A--><g id="elem_PC 0A"><rect fill="#F1F1F1" height="18.2563" rx="1" ry="1" style="stroke:#181818;stroke-width:0.20000000000000004;" width="32" x="332" y="60.4"/><rect fill="#F1F1F1" height="4" style="stroke:#181818;stroke-width:0.20000000000000004;" width="6" x="356" y="62.4"/><rect fill="#F1F1F1" height="0.8" style="stroke:#181818;stroke-width:0.20000000000000004;" width="1.6" x="355.2" y="63.2"/><rect fill="#F1F1F1" height="0.8" style="stroke:#181818;stroke-width:0.20000000000000004;" width="1.6" x="355.2" y="64.8"/><text fill="#000000" font-family="sans-serif" font-size="5.6" lengthAdjust="spacing" textLength="16" x="338" y="73.4695">PC 0A</text></g><!--MD5=[eb15286988896659eb0d7b666e10b471]
entity PC 0B--><g id="elem_PC 0B"><rect fill="#F1F1F1" height="18.2563" rx="1" ry="1" style="stroke:#181818;stroke-width:0.20000000000000004;" width="32" x="378" y="60.4"/><rect fill="#F1F1F1" height="4" style="stroke:#181818;stroke-width:0.20000000000000004;" width="6" x="402" y="62.4"/><rect fill="#F1F1F1" height="0.8" style="stroke:#181818;stroke-width:0.20000000000000004;" width="1.6" x="401.2" y="63.2"/><rect fill="#F1F1F1" height="0.8" style="stroke:#181818;stroke-width:0.20000000000000004;" width="1.6" x="401.2" y="64.8"/><text fill="#000000" font-family="sans-serif" font-size="5.6" lengthAdjust="spacing" textLength="16" x="384" y="73.4695">PC 0B</text></g><!--MD5=[fb76ef1876762905b34581d4e45e0a50]
entity PC 0C--><g id="elem_PC 0C"><rect fill="#F1F1F1" height="18.2563" rx="1" ry="1" style="stroke:#181818;stroke-width:0.20000000000000004;" width="32.4" x="379.4" y="18"/><rect fill="#F1F1F1" height="4" style="stroke:#181818;stroke-width:0.20000000000000004;" width="6" x="403.8" y="20"/><rect fill="#F1F1F1" height="0.8" style="stroke:#181818;stroke-width:0.20000000000000004;" width="1.6" x="403" y="20.8"/><rect fill="#F1F1F1" height="0.8" style="stroke:#181818;stroke-width:0.20000000000000004;" width="1.6" x="403" y="22.4"/><text fill="#000000" font-family="sans-serif" font-size="5.6" lengthAdjust="spacing" textLength="16.4" x="385.4" y="31.0695">PC 0C</text></g><!--MD5=[a1391a7c14312468ee020f2c26c1c26c]
entity PC 0D--><g id="elem_PC 0D"><rect fill="#F1F1F1" height="18.2563" rx="1" ry="1" style="stroke:#181818;stroke-width:0.20000000000000004;" width="32.4" x="424.2" y="60.4"/><rect fill="#F1F1F1" height="4" style="stroke:#181818;stroke-width:0.20000000000000004;" width="6" x="448.6" y="62.4"/><rect fill="#F1F1F1" height="0.8" style="stroke:#181818;stroke-width:0.20000000000000004;" width="1.6" x="447.8" y="63.2"/><rect fill="#F1F1F1" height="0.8" style="stroke:#181818;stroke-width:0.20000000000000004;" width="1.6" x="447.8" y="64.8"/><text fill="#000000" font-family="sans-serif" font-size="5.6" lengthAdjust="spacing" textLength="16.4" x="430.2" y="73.4695">PC 0D</text></g><!--MD5=[a328f39258fcb66f31b5b9fdb23b1d88]
entity PC 0E--><g id="elem_PC 0E"><rect fill="#F1F1F1" height="18.2563" rx="1" ry="1" style="stroke:#181818;stroke-width:0.20000000000000004;" width="32" x="510.8" y="60.4"/><rect fill="#F1F1F1" height="4" style="stroke:#181818;stroke-width:0.20000000000000004;" width="6" x="534.8" y="62.4"/><rect fill="#F1F1F1" height="0.8" style="stroke:#181818;stroke-width:0.20000000000000004;" width="1.6" x="534" y="63.2"/><rect fill="#F1F1F1" height="0.8" style="stroke:#181818;stroke-width:0.20000000000000004;" width="1.6" x="534" y="64.8"/><text fill="#000000" font-family="sans-serif" font-size="5.6" lengthAdjust="spacing" textLength="16" x="516.8" y="73.4695">PC 0E</text></g><!--MD5=[3a3423f92ce4b27d4ac500bea0db0534]
entity PC 0F--><g id="elem_PC 0F"><rect fill="#F1F1F1" height="18.2563" rx="1" ry="1" style="stroke:#181818;stroke-width:0.20000000000000004;" width="32" x="556.8" y="60.4"/><rect fill="#F1F1F1" height="4" style="stroke:#181818;stroke-width:0.20000000000000004;" width="6" x="580.8" y="62.4"/><rect fill="#F1F1F1" height="0.8" style="stroke:#181818;stroke-width:0.20000000000000004;" width="1.6" x="580" y="63.2"/><rect fill="#F1F1F1" height="0.8" style="stroke:#181818;stroke-width:0.20000000000000004;" width="1.6" x="580" y="64.8"/><text fill="#000000" font-family="sans-serif" font-size="5.6" lengthAdjust="spacing" textLength="16" x="562.8" y="73.4695">PC 0F</text></g><!--MD5=[5a6b6219b009669c029f5f5945458f99]
link Fa9 to Hub--><g id="link_Fa9_Hub"><path d="M239.028,34.008 C241.308,34.932 243.692,35.78 246,36.4 C339.972,61.62 369.628,35.18 463.6,60.4 C465.908,61.02 468.292,61.868 470.572,62.792 " fill="none" id="Fa9-Hub" style="stroke:#181818;stroke-width:0.4000000000000001;"/></g><!--MD5=[dff08ff9c2c9d81f4f658d19f510a4da]
link Hub to PC 0F--><g id="link_Hub_PC 0F"><path d="M492.432,60.316 C497.4,55.78 504,50.792 511,48.4 C524.46,43.8 529.452,44.072 543,48.4 C550.44,50.776 557.608,55.764 563.052,60.304 " fill="none" id="Hub-PC 0F" style="stroke:#181818;stroke-width:0.4000000000000001;"/></g><!--MD5=[b890d8e997b7840d11b07d19c67064da]
link Hub to PC 0E--><g id="link_Hub_PC 0E"><path d="M496.764,69.6 C501.416,69.6 506.072,69.6 510.724,69.6 " fill="none" id="Hub-PC 0E" style="stroke:#181818;stroke-width:0.4000000000000001;"/></g><!--MD5=[41d5b65453e36d9194a2d26754ff9bbb]
link Fa7 to PC 0D--><g id="link_Fa7_PC 0D"><path d="M159.02,34.036 C161.3,34.96 163.688,35.796 166,36.4 C274.528,64.676 307.972,34.952 417.2,60.4 C419.464,60.928 421.808,61.624 424.092,62.396 " fill="none" id="Fa7-PC 0D" style="stroke:#181818;stroke-width:0.4000000000000001;"/></g><!--MD5=[bf62d29cff095d51a8d70bd401905ec1]
link Fa5 to PC 0D--><g id="link_Fa5_PC 0D"><path d="M199.028,34 C201.308,34.928 203.692,35.776 206,36.4 C297.2,61.036 325.388,38.14 417.2,60.4 C419.46,60.948 421.8,61.656 424.084,62.432 " fill="none" id="Fa5-PC 0D" style="stroke:#181818;stroke-width:0.4000000000000001;"/></g><!--MD5=[0d4a09f60270a2c640b8dda309438a06]
link Fa3 to PC 0B--><g id="link_Fa3_PC 0B"><path d="M119.02,34.032 C121.304,34.956 123.688,35.796 126,36.4 C231.928,64.132 264.66,35.12 371.2,60.4 C373.428,60.928 375.732,61.628 377.98,62.396 " fill="none" id="Fa3-PC 0B" style="stroke:#181818;stroke-width:0.4000000000000001;"/></g><!--MD5=[97c25fd762dc683ae6affd53149938ce]
link Fa1 to PC 0A--><g id="link_Fa1_PC 0A"><path d="M79.02,34.028 C81.304,34.952 83.688,35.792 86,36.4 C189.504,63.62 221.572,35.264 325.6,60.4 C327.672,60.9 329.808,61.552 331.896,62.272 " fill="none" id="Fa1-PC 0A" style="stroke:#181818;stroke-width:0.4000000000000001;"/></g><!--MD5=[aa3e9ed854f56260c8a5ee82e3244c82]
@startuml

  node "switch" {
  [Fa1]
  [Fa2]
  [Fa3]
  [Fa4]
  [Fa5]
  [Fa6]
  [Fa7]
  [Fa8]
  [Fa9]
  [Fa10]
  [Fa11]
  [Fa12]
  }
  [Hub]
  [PC 0A]
  [PC 0B]
  [PC 0C]
  [PC 0D]
  [PC 0E]
  [PC 0F]
[Fa9] - - [Hub]
[Hub] - [PC 0F]
[Hub] - [PC 0E]
[Fa7] - - [PC 0D]
[Fa5] - - [PC 0D]
[Fa3] - - [PC 0B]
[Fa1] - - [PC 0A]


  frame "Frame" {

  }

  @enduml

PlantUML version 1.2022.7(Mon Aug 22 19:01:30 CEST 2022)
(GPL source distribution)
Java Runtime: OpenJDK Runtime Environment
JVM: OpenJDK 64-Bit Server VM
Default Encoding: Cp1252
Language: de
Country: DE
--></g></svg>